<?xml version="1.0" encoding="UTF-8"?>
<svg width="600px" height="100px" viewBox="0 0 600 100" version="1.1" xmlns="http://www.w3.org/2000/svg" xmlns:xlink="http://www.w3.org/1999/xlink">
    <!-- Generator: Sketch 45.2 (43514) - http://www.bohemiancoding.com/sketch -->
    <title>Logo test-english</title>
    <desc>Created with Sketch.</desc>
    <defs></defs>
    <g id="Page-1" stroke="none" stroke-width="1" fill="none" fill-rule="evenodd">
        <g id="Logo-test-english">
            <g id="lletres-test-english-WHITE" transform="translate(105.879254, 7.516112)" fill="#FFFFFF">
                <path d="M251.237172,36.1322614 C251.237172,30.9006622 249.373981,26.4316593 245.647598,22.7252527 C241.921215,19.018846 237.428431,17.1656427 232.169246,17.1656427 L231.889091,17.1656427 C226.627974,17.1656427 222.13519,19.0208375 218.410739,22.731227 C214.683712,26.4405887 212.821165,30.91396 212.823097,36.1513408 L212.823097,54.2967761 C212.823097,59.4727432 214.685645,63.9154075 218.410739,67.6247693 C222.135834,71.334131 226.628618,73.1887476 231.889091,73.1886191 L232.169246,73.1886191 C238.49302,73.1886191 243.564791,70.6903792 247.384559,65.6938994 C248.301376,64.5146492 248.797708,63.0640823 248.794994,61.571794 C248.794994,59.2619708 247.886906,57.4195599 246.070729,56.0445611 C244.887757,55.1314564 243.43376,54.6370348 241.93796,54.639241 C239.621368,54.639241 237.774278,55.5760568 236.396688,57.4496886 C235.410563,58.7853412 233.831627,59.5551737 232.169246,59.5108376 L231.889091,59.5108376 C230.461444,59.5413994 229.084632,58.9819566 228.08478,57.965024 C227.077905,56.9981405 226.517018,55.658772 226.535233,54.2647844 L226.535233,52.2971049 C226.523976,52.2196101 226.550067,52.1413636 226.605615,52.0860322 C226.661163,52.0307008 226.739644,52.004783 226.81732,52.016118 L244.380138,52.016118 C248.152592,51.9995396 251.209694,48.9589471 251.237172,45.1961139 L251.237172,36.1322614 L251.237172,36.1322614 Z M237.241017,38.3383365 L226.81732,38.3383365 C226.740056,38.3500612 226.661783,38.3246673 226.606216,38.2698493 C226.55065,38.2150313 226.524331,38.1372405 226.535233,38.0600477 L226.535233,36.1176146 C226.505999,34.7077796 227.067597,33.3496675 228.08478,32.3703512 C229.090197,31.3639039 230.465027,30.8121613 231.889091,30.8436169 L232.169246,30.8436169 C233.576252,30.8303827 234.929854,31.3803088 235.927187,32.3703512 C236.96907,33.3363151 237.549429,34.6990152 237.523104,36.1176146 L237.523104,38.0600477 C237.534006,38.1372405 237.507687,38.2150313 237.452121,38.2698493 C237.396555,38.3246673 237.318281,38.3500612 237.241017,38.3383365 L237.241017,38.3383365 L237.241017,38.3383365 Z M299.418029,36.2157095 C299.418029,30.9608554 297.555482,26.4723234 293.830387,22.7501137 C290.10336,19.0277754 285.610576,17.1663493 280.352035,17.1658354 L280.069948,17.1658354 C274.810763,17.1658354 270.317979,19.0273257 266.591596,22.7503064 C262.865213,26.473287 261.002666,30.961819 261.003954,36.2159022 L261.003954,66.1506478 C261.02104,69.9227939 264.079293,72.9781985 267.860988,73.0012945 C269.70161,73.043086 271.474477,72.3083039 272.743413,70.9777259 C274.03196,69.6953436 274.743802,67.9463941 274.71609,66.1309902 L274.71609,36.113182 C274.698228,34.7145284 275.258703,33.3702858 276.265637,32.3967539 C277.263497,31.3760361 278.640967,30.8136742 280.069948,30.8436169 L280.352035,30.8436169 C281.781016,30.8136742 283.158487,31.3760361 284.156346,32.3967539 C285.16328,33.3702858 285.723756,34.7145284 285.705893,36.113182 L285.705893,66.1315684 C285.678181,67.9469722 286.390024,69.6959218 287.67857,70.9783041 C288.96301,72.2719178 290.712265,73.0001963 292.537568,73.001282 C294.362872,73.0023677 296.112996,72.2761705 297.398982,70.9840857 C298.710743,69.7191327 299.441223,67.9704227 299.418029,66.1506478 L299.418029,36.2157095 L299.418029,36.2157095 Z M347.318731,36.0195197 C347.318731,30.8303191 345.471641,26.3906098 341.777459,22.7003917 C338.080702,19.0114584 333.634933,17.1665421 328.440151,17.1656427 L328.158064,17.1656427 C322.960707,17.1656427 318.514937,19.0115226 314.820756,22.7032825 C311.126575,26.3950424 309.279484,30.8367432 309.279484,36.0283849 L309.279484,53.6702407 C309.279484,58.8638096 311.11949,63.3059601 314.799503,66.9966921 C318.479515,70.6874242 322.90854,72.5327902 328.086576,72.5327902 L328.366731,72.5327902 C330.071379,72.5303466 331.768693,72.3101381 333.417249,71.8775394 C333.542836,71.8160615 333.604663,71.8775394 333.604663,72.0619732 L333.604663,72.7999012 C333.620992,74.1761609 333.061565,75.4969467 332.060913,76.4446372 C331.091311,77.4353509 329.75657,77.9857295 328.368663,77.9671316 L328.088508,77.9671316 C326.489039,78.0068058 324.964247,77.2927545 323.973129,76.0399235 C322.601335,74.3886916 320.824445,73.5630756 318.642456,73.5630756 C317.121865,73.5502087 315.640625,74.0448755 314.434335,74.9683958 C312.749541,76.3415958 311.907788,78.1215652 311.909076,80.308304 C311.876118,81.8336819 312.373827,83.3233652 313.31758,84.5240718 C317.137348,89.269886 322.084176,91.6432428 328.158064,91.6441422 L328.440151,91.6441422 C333.635577,91.6441422 338.081346,89.7992259 341.777459,86.1093932 C345.469709,82.4191751 347.316799,77.9794658 347.318731,72.7902652 L347.318731,36.0195197 Z M332.082166,57.3151694 C331.135226,58.3129807 329.813649,58.8711496 328.436287,58.8550087 L328.159996,58.8550087 C326.782635,58.8711496 325.461058,58.3129807 324.514118,57.3151694 C323.522228,56.3449648 322.97202,55.0118616 322.99162,53.6263004 L322.99162,36.0723252 C322.971968,34.6872062 323.522217,33.3545607 324.514118,32.3849979 C325.460831,31.3866341 326.78238,30.8277787 328.159996,30.8432314 L328.436287,30.8432314 C329.813904,30.8277787 331.135452,31.3866341 332.082166,32.3849979 C333.074066,33.3545607 333.624315,34.6872062 333.604663,36.0723252 L333.604663,53.6263004 C333.624263,55.0118616 333.074055,56.3449648 332.082166,57.3151694 L332.082166,57.3151694 Z M377.652751,66.1535386 C377.652751,64.028085 376.525691,62.0270648 374.271571,60.150478 C372.01745,58.2738912 370.89039,56.1475383 370.89039,53.7714191 L370.89039,6.96300293 C370.914738,5.14653643 370.189586,3.39991925 368.884867,2.13245578 C367.603612,0.811283285 365.829474,0.0807384597 363.986985,0.115632487 C362.174581,0.0937035387 360.434635,0.824430506 359.183777,2.13284122 C357.879058,3.40030469 357.153906,5.14692187 357.178254,6.96338837 L357.178254,53.7712264 C357.178254,61.5264404 360.465405,67.5612356 367.039708,71.8756122 C368.149491,72.621093 369.459728,73.0135713 370.797649,73.0012945 C373.239828,73.0012945 375.14939,71.9692745 376.526335,69.9052346 C377.25649,68.7891064 377.647659,67.4862592 377.652751,66.1535386 L377.652751,66.1535386 L377.652751,66.1535386 Z M400.33371,2.41055191 C398.868568,0.909078815 396.846341,0.0785234274 394.746068,0.115632487 C392.675336,0.0914438077 390.686684,0.922134049 389.251167,2.41093736 C387.758739,3.8427659 386.925958,5.8261926 386.950032,7.8915318 C386.906768,9.97422388 387.741575,11.9794662 389.251167,13.4189574 C390.69981,14.8829627 392.684025,15.6948889 394.746068,15.6674311 C396.837727,15.7074152 398.855407,14.8954981 400.33371,13.4189574 C401.843302,11.9794662 402.678109,9.97422388 402.634845,7.8915318 C402.659026,5.82605918 401.826237,3.84247258 400.33371,2.41055191 L400.33371,2.41055191 Z M401.603102,25.4098536 C401.598297,23.589384 400.867926,21.8455416 399.572971,20.5626887 C398.278017,19.2798358 396.524781,18.5632817 394.699698,18.5709629 C392.887229,18.5486084 391.146876,19.2781653 389.894557,20.5852808 C388.58999,21.8503838 387.864713,23.5951417 387.889034,25.4098536 L387.889034,66.1624037 C387.864461,67.9771639 388.589778,69.7220173 389.894557,70.9869765 C391.146471,72.2946793 392.887092,73.0243488 394.699698,73.0012945 C396.524781,73.0089756 398.278017,72.2924215 399.572971,71.0095686 C400.867926,69.7267158 401.598297,67.9828733 401.603102,66.1624037 L401.603102,25.4098536 Z M445.27443,56.5128727 C445.27443,50.4556576 442.61328,45.7090082 437.29098,42.2729246 L427.147438,36.2771874 C425.833608,35.4662183 425.395665,34.3420135 425.833608,32.9045732 C426.208436,31.4685462 427.115881,30.75034 428.555942,30.7499546 L428.838029,30.7499546 C430.528619,30.7499546 431.906208,31.4681608 432.970797,32.9045732 C434.349031,34.7161489 436.196122,35.6219367 438.512069,35.6219367 C440.006742,35.6248056 441.460179,35.1332176 442.644838,34.2241326 C444.461015,32.8569712 445.369103,31.0550316 445.369103,28.8183139 C445.391203,27.3294491 444.89323,25.8793097 443.9606,24.7166368 C440.1389,19.6841825 435.098043,17.1674414 428.838029,17.1664136 L428.555942,17.1664136 C421.087736,17.1400623 414.535524,22.1269455 412.589041,29.3188098 C412.156469,30.7753744 411.935251,32.2862247 411.932126,33.8053503 C411.932126,39.9125444 414.624834,44.6484656 420.010249,48.013114 L430.153791,54.0894085 C431.405794,54.8374222 431.843737,55.927965 431.467621,57.361037 C431.091505,58.7941089 430.184061,59.5109019 428.745288,59.5114158 L428.463201,59.5114158 C426.77261,59.5114158 425.395021,58.8243661 424.330432,57.4502667 C422.952198,55.6395904 421.136021,54.7338026 418.881901,54.7329033 C417.355968,54.7199457 415.869191,55.2144179 414.656391,56.1382234 C412.902042,57.5129652 412.025511,59.3241554 412.026799,61.571794 C412.013571,63.0941313 412.509164,64.5774819 413.435302,65.7875618 C417.253138,70.7221139 422.262437,73.1889403 428.463201,73.1880409 L428.745288,73.1880409 C432.380682,73.2283576 435.92264,72.0396011 438.794156,69.8154267 C441.699158,67.6236444 443.782466,64.5226166 444.710256,61.0092419 C445.083084,59.5391213 445.272575,58.0287207 445.27443,56.5122945 L445.27443,56.5122945 L445.27443,56.5128727 Z M493.54996,36.2157095 C493.54996,30.9608554 491.686769,26.4723234 487.960386,22.7501137 C484.234003,19.0279039 479.741863,17.1664778 474.483966,17.1658354 L474.201879,17.1658354 C472.575945,17.1655395 470.95993,17.418414 469.412195,17.9153267 C469.035435,17.9783464 468.848021,17.852307 468.848021,17.5391356 L468.848021,6.99075473 C468.875499,5.1745441 468.163752,3.42478595 466.875344,2.14112822 C465.591779,0.846244968 463.842584,0.116813746 462.016991,0.11514878 C460.191399,0.113483813 458.440869,0.839723234 457.154933,2.13226306 C455.842745,3.39573172 455.11211,5.14376839 455.135885,6.96281021 L455.135885,66.1535386 C455.154648,69.9237665 458.211214,72.9770574 461.990987,73.0012945 C463.832248,73.0434882 465.605868,72.3086851 466.875344,70.9777259 C468.163891,69.6953436 468.875733,67.9463941 468.848021,66.1309902 L468.848021,36.113182 C468.829285,34.7143603 469.389898,33.3697862 470.397568,32.3967539 C471.395428,31.3760361 472.772898,30.8136742 474.201879,30.8436169 L474.483966,30.8436169 C475.912359,30.8137926 477.289186,31.3761778 478.286345,32.3967539 C479.294551,33.3695755 479.855849,34.7141133 479.837824,36.113182 L479.837824,66.1315684 C479.81029,67.9465626 480.521315,69.6952143 481.808569,70.9783041 C483.093366,72.2719855 484.842931,73.0002774 486.668533,73.001363 C488.494136,73.0024486 490.24457,72.2762381 491.530913,70.9840857 C492.842674,69.7191327 493.573154,67.9704227 493.54996,66.1506478 L493.54996,36.2157095 L493.54996,36.2157095 Z" id="english"></path>
                <path d="M196.199281,38.9003104 L174.409022,38.9003104 C171.635289,38.8937695 169.132143,40.5585423 168.071713,43.1150794 C167.011283,45.6716166 167.603494,48.6138194 169.571035,50.5639667 C170.835615,51.8730234 172.586678,52.6020865 174.409022,52.5782846 L196.199281,52.5782846 C198.972662,52.5840416 201.475089,50.918982 202.535022,48.3626217 C203.594955,45.8062613 203.002624,42.8645287 201.035336,40.9146283 C199.771098,39.6062379 198.020917,38.8772506 196.199281,38.9003104 Z" id="-"></path>
                <path d="M26.2959242,61.3237623 C25.0194299,60.0058409 23.2486304,59.2803235 21.4119538,59.3227421 L19.1577691,59.3227421 C17.7573848,59.3396456 16.4132142,58.7740104 15.448131,57.7617035 C14.4395221,56.7800712 13.8792503,55.4284023 13.898391,54.0229198 L13.898391,31.3171319 C13.879118,31.1875736 13.922187,31.0565319 14.0146176,30.963501 C14.1070483,30.8704702 14.2380295,30.8263315 14.3680853,30.8443878 L21.412147,30.8443878 C23.2486962,30.8870449 25.019457,30.1617243 26.2959242,28.8439457 C27.5940126,27.5517986 28.3064896,25.7867451 28.2682152,23.957895 C28.2728926,22.1469655 27.5505246,20.4095449 26.2623443,19.1334271 C24.9741641,17.8573093 23.227408,17.1487267 21.4119538,17.1658354 L14.3678921,17.1658354 C14.2384854,17.1846536 14.1077689,17.1414146 14.0152783,17.0491963 C13.9227876,16.9569779 13.879385,16.8266104 13.8981978,16.6975239 L13.8981978,6.95413777 C13.9399783,5.11964189 13.2073049,3.35200271 11.8789568,2.08254109 C10.601104,0.799204649 8.85509274,0.0892129051 7.04193645,0.115632487 C5.10043037,0.115632487 3.47244023,0.772425014 2.15796604,2.08601007 C0.843491844,3.39959512 0.186061536,5.02525941 0.185675115,6.96300293 L0.185675115,53.958551 C0.185675115,59.2121204 2.03283016,63.6991748 5.72714024,67.4197143 C9.42145032,71.1402538 13.8983266,73.0007805 19.1577691,73.0012945 L21.4119538,73.0012945 C23.227596,73.0190311 24.9747176,72.3106511 26.2630355,71.0343969 C27.5513534,69.7581428 28.2735207,68.0203562 28.2682152,66.2092349 C28.3067375,64.3805098 27.5942107,62.6155418 26.2959242,61.3237623 Z M76.5437452,36.1322614 C76.5437452,30.9006622 74.6810045,26.4316593 70.9555231,22.7252527 C67.2300418,19.018846 62.7374511,17.1657069 57.477751,17.1658354 L57.1958571,17.1658354 C51.9362859,17.1658354 47.4436952,19.0210302 43.718085,22.7314198 C39.9924749,26.4418093 38.1297342,30.9151805 38.129863,36.1515335 L38.129863,54.2969688 C38.129863,59.4729359 39.9926037,63.9156003 43.718085,67.624962 C47.4435664,71.3343237 51.9361571,73.1889403 57.1958571,73.1888118 L57.477751,73.1888118 C63.8011383,73.1888118 68.8729091,70.6905719 72.6930635,65.6940922 C73.6086797,64.5143065 74.1043224,63.0639646 74.1017599,61.5719867 C74.1017599,59.2621635 73.1936715,57.4197526 71.3774945,56.0447538 C70.19461,55.1316242 68.7406654,54.637197 67.244919,54.6394337 C64.9276832,54.6394337 63.0805926,55.5762495 61.7036471,57.4498813 C60.7177187,58.78525 59.1392144,59.555048 57.4771714,59.5110304 L57.1952775,59.5110304 C55.7677915,59.5416395 54.3911407,58.9821769 53.391546,57.9652167 C52.3848332,56.9982067 51.8239194,55.6589398 51.841806,54.2649771 L51.841806,52.2971049 C51.8307478,52.2197229 51.8568475,52.1416622 51.9122583,52.0863918 C51.9676691,52.0311214 52.0459281,52.0050877 52.1235067,52.016118 L69.6863246,52.016118 C73.4591289,52.0006817 76.5166769,48.9593026 76.5425859,45.1961139 L76.5425859,36.1322614 L76.5437452,36.1322614 Z M62.5495218,38.3383365 L52.1240863,38.3383365 C52.0469187,38.3497551 51.9688673,38.3242443 51.913439,38.2694873 C51.8580107,38.2147302 51.8316832,38.1371263 51.8423857,38.0600477 L51.8423857,36.1176146 C51.8135081,34.7078081 52.3751299,33.3498092 53.3921256,32.3703512 C54.3973008,31.3638971 55.77196,30.8121391 57.1958571,30.8436169 L57.477751,30.8436169 C58.8843938,30.8304985 60.2375922,31.3804305 61.2345324,32.3703512 C62.2764136,33.3363792 62.8570038,34.6989632 62.8312225,36.1176146 L62.8312225,38.0600477 C62.841925,38.1371263 62.8155975,38.2147302 62.7601692,38.2694873 C62.7047408,38.3242443 62.6266894,38.3497551 62.5495218,38.3383365 L62.5495218,38.3383365 L62.5495218,38.3383365 Z M119.653218,56.5128727 C119.653218,50.4556576 116.992068,45.7090082 111.669767,42.2729246 L101.526226,36.2771874 C100.212395,35.4662183 99.7744521,34.3420135 100.212395,32.9045732 C100.587224,31.4685462 101.494668,30.75034 102.934729,30.7499546 L103.216816,30.7499546 C104.907406,30.7499546 106.284996,31.4681608 107.349585,32.9045732 C108.727818,34.7161489 110.574909,35.6219367 112.890857,35.6219367 C114.38558,35.6251115 115.839113,35.1334908 117.023625,34.2241326 C118.839802,32.8569712 119.747891,31.0550316 119.747891,28.8183139 C119.76999,27.3294491 119.272017,25.8793097 118.339388,24.7166368 C114.51962,19.6841825 109.478762,17.1674414 103.216816,17.1664136 L102.934729,17.1664136 C95.4666365,17.1396462 88.9145339,22.1268088 86.9689875,29.3188098 C86.5363344,30.7753567 86.3151154,32.2862187 86.3120724,33.8053503 C86.3120724,39.9125444 89.004587,44.6484656 94.3896162,48.013114 L104.533158,54.0894085 C105.785161,54.8374222 106.223104,55.927965 105.846988,57.361037 C105.470872,58.7941089 104.563427,59.5109019 103.124655,59.5114158 L102.842568,59.5114158 C101.151977,59.5114158 99.7743877,58.8243661 98.7097989,57.4502667 C97.3315653,55.6395904 95.5160323,54.7338026 93.2632,54.7329033 C91.7366797,54.7196034 90.2492437,55.2140914 89.0359515,56.1382234 C87.2822458,57.5129652 86.4055862,59.3241554 86.4059726,61.571794 C86.3927964,63.0941857 86.8885329,64.5775594 87.8148623,65.7875618 C91.6325693,70.7221139 96.6418044,73.1889403 102.842568,73.1880409 L103.124655,73.1880409 C106.760048,73.2283576 110.302007,72.0396011 113.173523,69.8154267 C116.078474,67.623222 118.16229,64.5224499 119.091555,61.0092419 C119.462815,59.5388685 119.651642,58.0285826 119.653797,56.5122945 L119.653797,56.5122945 L119.653218,56.5128727 Z M155.717856,61.3237623 C154.442082,60.0057216 152.671689,59.2801412 150.835431,59.3227421 L148.580666,59.3227421 C147.180278,59.3396691 145.836098,58.77403 144.871028,57.7617035 C143.862144,56.7802724 143.301879,55.4284523 143.321482,54.0229198 L143.321482,31.3171319 C143.302053,31.1875764 143.345043,31.0564716 143.437468,30.9634075 C143.529894,30.8703435 143.660921,30.8262299 143.790983,30.8443878 L150.835431,30.8443878 C152.671512,30.8874824 154.441929,30.162381 155.717856,28.8447166 C157.016431,27.552862 157.729113,25.7876468 157.690533,23.9586659 C157.69505,22.1479867 156.972791,20.4108356 155.684897,19.1347858 C154.397003,17.8587361 152.650638,17.1499653 150.835431,17.1666063 L143.790983,17.1666063 C143.661571,17.1855269 143.530808,17.1423136 143.438322,17.0500619 C143.345836,16.9578103 143.302513,16.827379 143.321482,16.6982947 L143.321482,6.95413777 C143.362881,5.1197514 142.630349,3.35228307 141.302434,2.08254109 C140.024007,0.799471416 138.277824,0.0895515991 136.464447,0.115632487 C134.522684,0.115632487 132.894565,0.772425014 131.580091,2.08601007 C130.265616,3.39959512 129.608701,5.02538789 129.609345,6.96338837 L129.609345,53.958551 C129.609345,59.2121204 131.456436,63.6991748 135.150617,67.4197143 C138.842866,71.1407677 143.319549,73.0012945 148.580666,73.0012945 L150.835431,73.0012945 C152.650826,73.0185629 154.397556,72.3099947 155.685588,71.0338086 C156.973619,69.7576226 157.695678,68.0201058 157.690533,66.2092349 C157.729361,64.3803789 157.016629,62.615249 155.717856,61.3237623 Z" id="test-"></path>
            </g>
            <g id="logo-icon-test-english" transform="translate(0.000000, 0.024402)" fill-rule="nonzero" fill="#5CC65C">
                <path d="M44.0348648,94.3805073 C33.6281549,93.6078604 23.8950184,89.5514637 16.0815663,82.723616 C15.2143405,81.9677657 12.536886,79.2970947 11.7791158,78.432066 C8.90800897,75.1735114 6.74415424,71.9149568 4.79079121,67.9341452 C2.44170378,63.1470933 1.01036019,58.3684397 0.345206397,53.0690893 C-0.109455687,49.4410079 -0.117875355,45.0738728 0.345206397,41.3954014 C1.85232701,29.2010165 8.02394381,18.1488055 17.6392049,10.3971408 C24.1644478,5.13978203 32.0536769,1.696464 40.3891484,0.461908516 C43.0076652,0.0671866932 44.1527401,0 47.4448304,0 C51.0737074,0 52.707123,0.142771723 55.8813379,0.705460279 C61.6067123,1.73005735 67.5257391,3.99760825 72.350209,7.02940778 C72.8722284,7.35694291 72.8722284,7.35694291 72.729094,7.55010465 C72.0302616,8.46552335 71.0451604,9.75886719 70.9609637,9.85964723 C70.902026,9.92683393 70.3042296,10.7078792 69.6306561,11.5813062 C66.9532016,15.0750143 66.4732806,15.6880929 66.3890839,15.7216862 C66.3554052,15.7384829 65.9849398,15.5537195 65.5723761,15.3185661 C64.9072223,14.9322426 62.9286002,13.9412388 61.9266597,13.496127 C61.2278273,13.1769902 59.2239462,12.4547333 58.1546484,12.1271981 C55.931856,11.4469329 54.0795289,11.0606094 51.4441728,10.7330742 C49.9538915,10.5399125 45.146261,10.5147175 43.698078,10.6826842 C38.9662245,11.2453728 35.3036688,12.2951649 31.3632641,14.1931889 C25.3937193,17.0822168 20.2745611,21.5669285 16.5951661,27.1518224 C10.9203097,35.7601175 9.16059902,46.4679967 11.7875355,56.5124073 C12.7810564,60.3084555 14.5576063,64.2556737 16.7383004,67.5142284 C19.2052632,71.1843015 22.4552551,74.5268395 26.1009715,77.1219255 C29.6540715,79.6582232 33.8639056,81.6234339 38.0569003,82.7152177 C45.1041626,84.5460551 52.631346,84.243715 59.4933756,81.8669857 C64.5956945,80.0949367 69.1170564,77.2898922 73.0322021,73.4770474 C76.2148367,70.3780612 78.6481208,67.0355232 80.4920281,63.2310767 C82.3022568,59.5106135 83.3715547,55.8825321 83.9609314,51.4314137 C84.1545838,49.9868998 84.1798428,44.7127443 84.0030298,43.4781889 L83.8935741,42.7139402 L84.4576919,41.9664883 C85.367016,40.7907211 85.7711601,40.2700243 86.3521172,39.5057756 C87.7666215,37.6665399 88.945375,36.1296443 89.4505551,35.474574 C89.7536632,35.0798522 90.4861743,34.1224418 91.0839708,33.3497949 C91.6817672,32.5687495 92.2037866,31.9640693 92.2374653,32.006061 C92.3553407,32.1236377 92.9868158,34.1896285 93.3320222,35.5585574 C94.047694,38.3971952 94.4855167,41.0930613 94.6791691,43.8729107 C94.7886248,45.4433996 94.7886248,49.0294894 94.6791691,50.59158 C93.9298186,61.0643058 89.7284042,70.9491481 82.6895615,78.7679995 C76.2485154,85.9233823 67.9383028,90.8784009 58.5587924,93.1627485 C57.9778353,93.2971219 57.1863865,93.473487 56.7906621,93.549072 C56.3949377,93.624657 55.9065969,93.7170387 55.6961052,93.7590304 C55.1488268,93.8682088 53.7259029,94.0697689 52.4124346,94.2293373 C51.5788875,94.3301173 50.3580356,94.372109 47.8658138,94.3889057 C45.9882278,94.397304 44.2706155,94.397304 44.0348648,94.3805073 Z" id="Shape"></path>
                <path d="M46.3081752,73.6366158 C44.6158219,73.3762674 43.1760586,72.7295954 41.9131084,71.6546083 C41.4247676,71.2430898 40.9953645,70.747588 39.3872079,68.7655805 C39.0504212,68.354062 37.9811233,67.0355232 37.0044418,65.834561 C36.0277603,64.6335989 34.9584624,63.31506 34.6216757,62.9035415 C34.284889,62.492023 33.8049679,61.9041395 33.5523778,61.593401 C33.2997878,61.2826626 32.8030274,60.6779823 32.457821,60.2496672 C32.1126146,59.821352 31.6158541,59.2166718 31.3632641,58.9059333 C31.1106741,58.5951948 30.630753,58.0073113 30.2939662,57.5957928 C29.1236324,56.1512789 25.0316736,51.1290736 24.5601722,50.5495883 C21.5375113,46.8711169 21.2428229,46.4176067 20.7376428,44.653956 C20.5776691,44.0996658 20.5524101,43.7889273 20.5524101,42.6551519 C20.5524101,41.1938413 20.6197675,40.7907211 21.1081082,39.5477673 C21.9584947,37.3725981 23.827661,35.6089474 26.0757125,34.8530971 C27.6670298,34.3072052 29.8561435,34.3324002 31.4895591,34.9034871 C33.1819124,35.4913707 34.234371,36.348001 36.03618,38.5819586 C37.2065138,40.0348708 37.989543,40.9922812 38.2589724,41.311418 C38.3768477,41.4541897 38.6041788,41.7313348 38.7557328,41.9160982 C38.9999032,42.2184384 44.2706155,48.7019543 46.0387458,50.8771235 C46.3755325,51.2886419 46.7628373,51.7505505 46.897552,51.9101189 L47.1585617,52.2040606 L48.1605022,50.8855218 C48.7162003,50.1632648 49.6255245,48.9790994 50.1812226,48.2484441 C50.7369207,47.5261871 51.5704678,46.4512 52.0335496,45.8465198 C54.205824,43.007882 54.6436467,42.4367951 55.1572465,41.7733265 C55.4603545,41.3786047 56.08341,40.5723644 56.5464917,39.9676841 C57.0011538,39.3714022 57.85996,38.2460251 58.4493368,37.4733782 C59.0471332,36.7091295 60.2258867,35.1638356 61.0846929,34.0468568 C61.9434991,32.929878 63.2485476,31.233414 63.9894784,30.2676053 C64.7304092,29.3101949 65.8502251,27.8488843 66.4901199,27.0258474 C67.121595,26.194412 67.8541061,25.2370016 68.1235355,24.8926698 C68.3845452,24.548338 69.1423154,23.5657327 69.7990495,22.7091023 C70.4557836,21.852472 71.2135538,20.8698666 71.4745635,20.5255348 C71.7439929,20.181203 72.2828516,19.484141 72.6701564,18.9718425 C73.6215789,17.7204903 75.1455388,15.7468812 75.7012369,15.0246243 C76.155899,14.4283424 77.7472163,12.3539532 78.2187177,11.749273 C78.3618521,11.5645096 79.3553729,10.2627674 80.4330905,8.85184683 C83.0684466,5.41692714 83.0852859,5.39173213 83.8598954,4.77025522 C85.038649,3.81284484 86.2174025,3.2753513 87.6571658,3.0234012 C91.8080622,2.29274591 95.7821456,4.76185688 97.0029975,8.81825349 C97.4155613,10.2123774 97.3734629,12.2615715 96.9019615,13.7144838 C96.5230764,14.8482592 96.1610307,15.4109478 93.9634973,18.2579839 C92.599511,20.0300329 92.0522326,20.7522899 90.9324167,22.2052021 C90.3851383,22.9190607 89.6863058,23.8260811 89.3831978,24.2208029 C89.0800897,24.6155247 87.9181755,26.1272253 86.7983596,27.5801376 C85.6869634,29.0414482 84.2303608,30.9310739 83.5820464,31.7793059 C82.9253123,32.6359362 81.9402111,33.9124834 81.3929326,34.626342 C80.8540739,35.3318023 80.2394381,36.1296443 80.0289464,36.3983911 C79.8184547,36.6671378 79.0859435,37.6329465 78.3871111,38.5399669 C77.6966983,39.4553856 76.9557675,40.412796 76.7452758,40.6815428 C76.5347841,40.9502895 75.6086206,42.15965 74.6824571,43.3690105 C73.7562936,44.578371 72.3923073,46.35042 71.6513765,47.3162287 C70.9104457,48.2736391 69.7906298,49.7349497 69.1507351,50.5579867 C68.5192599,51.389422 67.8035881,52.3300357 67.5509981,52.6491725 C67.298408,52.9767076 66.5322182,53.9761097 65.8418054,54.8747317 C65.1513927,55.7733537 64.4020422,56.7559591 64.1662915,57.0582992 C63.5095573,57.9149296 63.0717346,58.4860165 61.5814533,60.4176339 C60.8236832,61.4086376 60.040654,62.4332347 59.8470017,62.6851848 C59.6449296,62.9371349 59.1144905,63.6425952 58.6514088,64.2388771 C56.5970097,66.9347431 53.9784929,70.3276711 53.5827685,70.8147747 C53.0860081,71.4194549 51.8483169,72.4104586 51.1158057,72.7799854 C49.9791505,73.3510723 48.9603707,73.6030224 47.6132238,73.6450141 C47.0322667,73.6618108 46.4513095,73.6534125 46.3081752,73.6366158 Z" id="Shape"></path>
            </g>
        </g>
    </g>
</svg>